# This file uses centimeters as units for non-parametric coordinates.

mtllib zip_model3.mtl
g default
v 3.205991 0.292299 0.072995
v 3.203778 0.401299 0.072995
v 2.953935 0.292299 0.072995
v 2.953935 0.401299 0.072995
v 2.953935 0.292299 -0.114505
v 2.953935 0.401299 -0.114505
v 2.953935 0.292299 -0.302005
v 2.953935 0.401299 -0.302005
v 3.197523 0.292299 -0.302005
v 3.196221 0.401299 -0.302005
v 3.783866 0.292299 -0.114505
v 3.783866 0.401299 -0.114505
v 2.958794 0.289722 0.070143
v 2.958794 0.398917 0.070143
v -2.148706 0.289722 0.070143
v -2.148706 0.398917 0.070143
v -2.148706 0.289722 -0.304957
v -2.148706 0.398917 -0.304957
v 2.958794 0.289722 -0.304957
v 2.958794 0.398917 -0.304957
v -2.818767 0.110714 0.239831
v -2.155033 0.110714 0.239831
v -2.818767 0.530773 0.239831
v -2.155033 0.530773 0.239831
v -2.818767 0.530773 -0.461498
v -2.155033 0.530773 -0.461498
v -2.818767 0.110714 -0.461498
v -2.155033 0.110714 -0.461498
v -2.818767 0.530773 0.239831
v -2.155033 0.530773 0.239831
v -2.155033 0.530773 -0.461498
v -2.818767 0.530773 -0.461498
v -2.486900 0.530773 0.239831
v -2.155033 0.530773 -0.110833
v -2.486900 0.530773 -0.461498
v -2.818767 0.530773 -0.110833
v -2.652833 0.530773 0.064499
v -2.818767 0.530773 0.064499
v -2.652833 0.530773 0.239831
v -2.486900 0.530773 0.064499
v -2.652833 0.530773 -0.110833
v -2.320966 0.530773 0.064499
v -2.320966 0.530773 0.239831
v -2.155033 0.530773 0.064499
v -2.320966 0.530773 -0.110833
v -2.320966 0.530773 -0.286166
v -2.155033 0.530773 -0.286166
v -2.320966 0.530773 -0.461498
v -2.486900 0.530773 -0.286166
v -2.652833 0.530773 -0.286166
v -2.652833 0.530773 -0.461498
v -2.818767 0.530773 -0.286166
v -2.486900 0.130772 0.064499
v -2.486900 0.130772 -0.110833
v -2.652833 0.130772 -0.110833
v -2.652833 0.130772 0.064499
v -2.320966 0.130772 -0.110834
v -2.320966 0.130772 0.064499
v -2.486900 0.130772 -0.286166
v -2.320966 0.130772 -0.286167
v -2.652833 0.130772 -0.286166
v -2.486900 0.110714 -0.461498
v -2.155033 0.110714 -0.110833
v -2.486900 0.110714 0.239831
v -2.818767 0.110714 -0.110833
v -2.652833 0.110714 -0.286166
v -2.818767 0.110714 -0.286166
v -2.652833 0.110714 -0.461498
v -2.486900 0.110714 -0.286166
v -2.652833 0.110714 -0.110833
v -2.320966 0.110714 -0.286166
v -2.320966 0.110714 -0.461498
v -2.155033 0.110714 -0.286166
v -2.320966 0.110714 -0.110833
v -2.320966 0.110714 0.064499
v -2.155033 0.110714 0.064499
v -2.320966 0.110714 0.239831
v -2.486900 0.110714 0.064499
v -2.652833 0.110714 0.064499
v -2.652833 0.110714 0.239831
v -2.818767 0.110714 0.064499
v -2.486900 0.110714 -0.286166
v -2.486900 0.110714 -0.110833
v -2.652833 0.110714 -0.110833
v -2.652833 0.110714 -0.286166
v -2.320966 0.110714 -0.110833
v -2.320966 0.110714 -0.286166
v -2.486900 0.110714 0.064499
v -2.320966 0.110714 0.064499
v -2.652833 0.110714 0.064499
vt 0.375000 0.000000
vt 0.625000 0.000000
vt 0.375000 0.250000
vt 0.625000 0.250000
vt 0.375000 0.375000
vt 0.625000 0.375000
vt 0.375000 0.500000
vt 0.625000 0.500000
vt 0.375000 0.750000
vt 0.625000 0.750000
vt 0.375000 0.875000
vt 0.625000 0.875000
vt 0.375000 1.000000
vt 0.625000 1.000000
vt 0.875000 0.000000
vt 0.750000 0.000000
vt 0.875000 0.250000
vt 0.750000 0.250000
vt 0.125000 0.000000
vt 0.250000 0.000000
vt 0.125000 0.250000
vt 0.250000 0.250000
vt 0.375000 0.000000
vt 0.625000 0.000000
vt 0.625000 0.250000
vt 0.375000 0.250000
vt 0.625000 0.500000
vt 0.375000 0.500000
vt 0.625000 0.750000
vt 0.375000 0.750000
vt 0.625000 1.000000
vt 0.375000 1.000000
vt 0.875000 0.000000
vt 0.875000 0.250000
vt 0.125000 0.000000
vt 0.125000 0.250000
vt 0.375000 0.000000
vt 0.437500 0.000000
vt 0.500000 0.000000
vt 0.562500 0.000000
vt 0.625000 0.000000
vt 0.625000 0.250000
vt 0.375000 0.250000
vt 0.437500 0.375000
vt 0.375000 0.375000
vt 0.375000 0.312500
vt 0.437500 0.312500
vt 0.375000 0.500000
vt 0.625000 0.500000
vt 0.625000 0.750000
vt 0.562500 0.750000
vt 0.500000 0.750000
vt 0.437500 0.750000
vt 0.375000 0.750000
vt 0.437500 0.875000
vt 0.375000 0.875000
vt 0.375000 0.812500
vt 0.437500 0.812500
vt 0.687500 0.000000
vt 0.750000 0.000000
vt 0.812500 0.000000
vt 0.875000 0.000000
vt 0.875000 0.250000
vt 0.125000 0.000000
vt 0.187500 0.000000
vt 0.250000 0.000000
vt 0.312500 0.000000
vt 0.125000 0.250000
vt 0.625000 0.250000
vt 0.562500 0.250000
vt 0.500000 0.250000
vt 0.437500 0.250000
vt 0.375000 0.250000
vt 0.625000 0.500000
vt 0.625000 0.437500
vt 0.625000 0.375000
vt 0.625000 0.312500
vt 0.375000 0.500000
vt 0.437500 0.500000
vt 0.500000 0.500000
vt 0.562500 0.500000
vt 0.375000 0.437500
vt 0.500000 0.312500
vt 0.562500 0.312500
vt 0.562500 0.375000
vt 0.562500 0.437500
vt 0.500000 0.437500
vt 0.437500 0.437500
vt 0.500000 0.312500
vt 0.500000 0.375000
vt 0.437500 0.375000
vt 0.437500 0.312500
vt 0.562500 0.375000
vt 0.562500 0.312500
vt 0.500000 0.437500
vt 0.562500 0.437500
vt 0.437500 0.437500
vt 0.500000 0.812500
vt 0.562500 0.812500
vt 0.562500 0.875000
vt 0.625000 0.875000
vt 0.625000 0.937500
vt 0.562500 0.937500
vt 0.500000 0.937500
vt 0.500000 1.000000
vt 0.437500 1.000000
vt 0.437500 0.937500
vt 0.500000 0.812500
vt 0.500000 0.875000
vt 0.437500 0.875000
vt 0.437500 0.812500
vt 0.625000 0.812500
vt 0.562500 0.875000
vt 0.562500 0.812500
vt 0.625000 1.000000
vt 0.562500 1.000000
vt 0.500000 0.937500
vt 0.562500 0.937500
vt 0.375000 1.000000
vt 0.375000 0.937500
vt 0.437500 0.937500
vn 0.000000 0.000000 1.000000
vn 0.000000 0.000000 1.000000
vn 0.000000 0.000000 1.000000
vn 0.000000 0.000000 1.000000
vn -1.000000 0.000000 0.000000
vn -1.000000 0.000000 0.000000
vn -1.000000 0.000000 0.000000
vn -1.000000 0.000000 0.000000
vn -1.000000 0.000000 0.000000
vn -1.000000 0.000000 0.000000
vn 0.000000 0.000000 -1.000000
vn 0.000000 0.000000 -1.000000
vn 0.000000 0.000000 -1.000000
vn 0.000000 0.000000 -1.000000
vn 0.304277 0.001817 -0.952582
vn 0.304277 0.001817 -0.952582
vn 0.999739 0.008059 -0.021362
vn 0.999739 0.008059 -0.021362
vn 0.308090 0.003127 0.951352
vn 0.308090 0.003127 0.951352
vn 0.000000 1.000000 0.000000
vn 0.000000 1.000000 0.000000
vn 0.000000 1.000000 0.000000
vn 0.000000 1.000000 0.000000
vn 0.000000 1.000000 0.000000
vn 0.000000 1.000000 0.000000
vn 0.000000 -1.000000 -0.000000
vn 0.000000 -1.000000 0.000000
vn 0.000000 -1.000000 0.000000
vn 0.000000 -1.000000 -0.000000
vn 0.000000 -1.000000 0.000000
vn 0.000000 -1.000000 0.000000
vn 0.000000 0.000000 1.000000
vn 0.000000 0.000000 1.000000
vn 0.000000 0.000000 1.000000
vn 0.000000 0.000000 1.000000
vn -1.000000 0.000000 0.000000
vn -1.000000 0.000000 0.000000
vn -1.000000 0.000000 0.000000
vn -1.000000 0.000000 0.000000
vn 0.000000 0.000000 -1.000000
vn 0.000000 0.000000 -1.000000
vn 0.000000 0.000000 -1.000000
vn 0.000000 0.000000 -1.000000
vn 1.000000 0.000003 0.000000
vn 1.000000 0.000003 0.000000
vn 1.000000 0.000003 0.000000
vn 1.000000 0.000003 0.000000
vn 0.000000 1.000000 0.000000
vn 0.000000 1.000000 0.000000
vn 0.000000 1.000000 0.000000
vn 0.000000 1.000000 0.000000
vn 0.000000 -1.000000 0.000000
vn 0.000000 -1.000000 0.000000
vn 0.000000 -1.000000 0.000000
vn 0.000000 -1.000000 0.000000
vn 0.000000 0.000000 1.000000
vn 0.000000 0.000000 1.000000
vn 0.000000 0.000000 1.000000
vn 0.000000 0.000000 1.000000
vn 0.000000 0.000000 1.000000
vn 0.000000 0.000000 1.000000
vn 0.000000 0.000000 1.000000
vn 0.000000 1.000000 0.000000
vn 0.000000 1.000000 0.000000
vn 0.000000 1.000000 0.000000
vn 0.000000 1.000000 0.000000
vn 0.000000 0.000000 -1.000000
vn 0.000000 0.000000 -1.000000
vn 0.000000 0.000000 -1.000000
vn 0.000000 0.000000 -1.000000
vn 0.000000 0.000000 -1.000000
vn 0.000000 0.000000 -1.000000
vn 0.000000 0.000000 -1.000000
vn -0.000001 -1.000000 0.000001
vn -0.000001 -1.000000 0.000001
vn -0.000001 -1.000000 0.000001
vn -0.000001 -1.000000 0.000001
vn 1.000000 0.000000 0.000000
vn 1.000000 0.000000 0.000000
vn 1.000000 0.000000 0.000000
vn 1.000000 0.000000 0.000000
vn 1.000000 0.000000 0.000000
vn 1.000000 0.000000 0.000000
vn 1.000000 0.000000 0.000000
vn -1.000000 0.000000 0.000000
vn -1.000000 0.000000 0.000000
vn -1.000000 0.000000 0.000000
vn -1.000000 0.000000 0.000000
vn -1.000000 0.000000 0.000000
vn -1.000000 0.000000 0.000000
vn -1.000000 0.000000 0.000000
vn 0.000000 0.000000 -0.000000
vn 0.000000 0.000000 -0.000000
vn 0.000000 0.000000 -0.000000
vn 0.000000 0.000000 -1.000000
vn 0.000000 0.000000 -1.000000
vn 0.000000 0.000000 -1.000000
vn 0.000000 0.000000 -0.000000
vn 0.000000 0.000000 0.000000
vn 0.000000 0.000000 0.000000
vn 0.000000 0.000000 0.000000
vn 0.000000 1.000000 0.000000
vn 0.000000 1.000000 0.000000
vn 0.000000 1.000000 0.000000
vn 0.000000 0.000000 0.000000
vn 0.000000 0.000000 -0.000000
vn 0.000000 0.000000 -0.000000
vn 0.000000 0.000000 -0.000000
vn 0.000000 0.000000 -1.000000
vn 0.000000 0.000000 -1.000000
vn 0.000000 0.000000 -1.000000
vn 0.000000 0.000000 -0.000000
vn 0.000000 0.000000 0.000000
vn 0.000000 0.000000 0.000000
vn 0.000000 0.000000 0.000000
vn 0.000000 1.000000 0.000000
vn 0.000000 1.000000 0.000000
vn 0.000000 1.000000 0.000000
vn 0.000000 0.000000 0.000000
vn 0.000000 1.000000 0.000000
vn 0.000000 1.000000 0.000000
vn 0.000000 1.000000 0.000000
vn 0.000000 1.000000 0.000000
vn 0.000000 1.000000 0.000000
vn 0.000000 1.000000 0.000000
vn 0.000000 1.000000 0.000000
vn 0.000000 1.000000 0.000000
vn 0.000000 1.000000 0.000000
vn 0.000000 1.000000 0.000000
vn 0.000000 1.000000 0.000000
vn 0.000000 1.000000 0.000000
vn 0.000000 1.000000 0.000000
vn 0.000000 1.000000 0.000000
vn 0.000000 1.000000 0.000000
vn 0.000000 1.000000 0.000000
vn 0.000000 1.000000 0.000000
vn 0.000000 1.000000 0.000000
vn 0.000000 1.000000 0.000000
vn 0.000000 1.000000 0.000000
vn 0.000000 1.000000 0.000000
vn 0.000000 1.000000 0.000000
vn 0.000000 1.000000 0.000000
vn 0.000000 1.000000 0.000000
vn 0.000000 1.000000 0.000000
vn 0.000000 1.000000 0.000000
vn 0.000000 1.000000 0.000000
vn 0.000000 1.000000 0.000000
vn 0.000000 1.000000 0.000000
vn 0.000000 1.000000 0.000000
vn 0.000000 1.000000 0.000000
vn 0.000000 1.000000 0.000000
vn 0.000000 1.000000 0.000000
vn 0.000000 1.000000 0.000000
vn 0.000000 1.000000 0.000000
vn 0.000000 1.000000 0.000000
vn 0.000000 1.000000 0.000000
vn 0.000000 1.000000 0.000000
vn 0.000000 1.000000 0.000000
vn 0.000000 1.000000 0.000000
vn 0.000000 1.000000 0.000000
vn 0.000000 1.000000 0.000000
vn 0.000000 1.000000 0.000000
vn 0.000000 1.000000 0.000000
vn 0.000000 1.000000 0.000000
vn 0.000000 1.000000 0.000000
vn 0.000000 1.000000 0.000000
vn 0.000000 1.000000 0.000000
vn 0.000000 1.000000 0.000000
vn 0.000000 1.000000 0.000000
vn 0.000000 1.000000 0.000000
vn 0.000000 1.000000 0.000000
vn 0.000000 1.000000 0.000000
vn 0.000000 1.000000 0.000000
vn 0.000000 1.000000 0.000000
vn 0.000000 1.000000 0.000000
vn 0.000000 1.000000 0.000000
vn 0.000000 1.000000 0.000000
vn 0.000000 1.000000 0.000000
vn 0.000000 1.000000 0.000000
vn 1.000000 0.000000 0.000000
vn 1.000000 0.000000 0.000000
vn 1.000000 0.000000 0.000000
vn 1.000000 0.000000 0.000000
vn 0.000002 -0.000001 -1.000000
vn 0.000001 -0.000001 -1.000000
vn 0.000001 -0.000001 -1.000000
vn 0.000002 -0.000001 -1.000000
vn 0.000000 -0.000001 -1.000000
vn 0.000000 -0.000001 -1.000000
vn -1.000000 0.000000 0.000000
vn -1.000000 0.000000 0.000000
vn -1.000000 0.000000 0.000000
vn -1.000000 0.000000 0.000000
vn -1.000000 -0.000000 0.000000
vn -1.000000 -0.000000 0.000000
vn 0.000003 -0.000001 1.000000
vn 0.000001 -0.000000 1.000000
vn 0.000001 -0.000000 1.000000
vn 0.000003 -0.000001 1.000000
vn 0.000000 0.000000 1.000000
vn 0.000000 0.000000 1.000000
vn 1.000000 0.000000 0.000000
vn 1.000000 0.000000 0.000000
vn 0.000000 -1.000000 0.000000
vn 0.000000 -1.000000 0.000000
vn 0.000000 -1.000000 0.000000
vn 0.000000 -1.000000 0.000000
vn 0.000000 -1.000000 0.000000
vn 0.000000 -1.000000 0.000000
vn 0.000000 -1.000000 0.000000
vn 0.000000 -1.000000 0.000000
vn 0.000000 -1.000000 0.000000
vn 0.000000 -1.000000 0.000000
vn 0.000000 -1.000000 0.000000
vn 0.000000 -1.000000 0.000000
vn -0.000001 -1.000000 -0.000001
vn -0.000001 -1.000000 -0.000001
vn -0.000001 -1.000000 -0.000001
vn -0.000001 -1.000000 -0.000001
vn 0.000001 -1.000000 -0.000001
vn 0.000001 -1.000000 -0.000001
vn 0.000001 -1.000000 -0.000001
vn 0.000001 -1.000000 -0.000001
vn 0.000001 -1.000000 0.000001
vn 0.000001 -1.000000 0.000001
vn 0.000001 -1.000000 0.000001
vn 0.000001 -1.000000 0.000001
vn 0.000000 -1.000000 0.000000
vn 0.000000 -1.000000 0.000000
vn 0.000000 -1.000000 0.000000
vn 0.000000 -1.000000 0.000000
vn 0.000000 -1.000000 0.000000
vn 0.000000 -1.000000 0.000000
vn 0.000000 -1.000000 0.000000
vn 0.000000 -1.000000 0.000000
vn 0.000000 -1.000000 0.000000
vn 0.000000 -1.000000 0.000000
vn 0.000000 -1.000000 0.000000
vn 0.000000 -1.000000 0.000000
vn 0.000000 -1.000000 0.000000
vn 0.000000 -1.000000 0.000000
vn 0.000000 -1.000000 0.000000
vn 0.000000 -1.000000 0.000000
vn 0.000000 -1.000000 0.000000
vn 0.000000 -1.000000 0.000000
vn 0.000000 -1.000000 0.000000
vn 0.000000 -1.000000 0.000000
vn 0.000000 -1.000000 0.000000
vn 0.000000 -1.000000 0.000000
vn 0.000000 -1.000000 0.000000
vn 0.000000 -1.000000 0.000000
vn 0.000000 -1.000000 0.000000
vn 0.000000 -1.000000 0.000000
vn 0.000000 -1.000000 0.000000
vn 0.000000 -1.000000 0.000000
vn 0.000000 -1.000000 0.000000
vn 0.000000 -1.000000 0.000000
vn 0.000000 -1.000000 0.000000
vn 0.000000 -1.000000 0.000000
vn 0.000000 -1.000000 0.000000
vn 0.000000 -1.000000 0.000000
vn 0.000000 -1.000000 0.000000
vn 0.000000 -1.000000 0.000000
vn 0.000000 0.000000 0.000000
vn 0.000000 0.000000 0.000000
vn 0.000000 0.000000 0.000000
vn 0.000000 0.000000 0.000000
vn 0.000000 0.000000 0.000000
vn 0.000000 0.000000 0.000000
vn 0.000000 0.000000 0.000000
vn 0.000000 0.000000 0.000000
vn 0.000000 0.000000 0.000000
vn 0.000000 0.000000 0.000000
vn 0.000000 0.000000 0.000000
vn 0.000000 0.000000 0.000000
vn 0.000000 0.000000 0.000000
vn 0.000000 0.000000 0.000000
vn 0.000000 0.000000 0.000000
vn 0.000000 0.000000 0.000000
vn 0.000000 0.000000 0.000000
vn 0.000000 0.000000 0.000000
vn 0.000000 0.000000 0.000000
vn 0.000000 0.000000 0.000000
vn 0.000000 0.000000 0.000000
vn 0.000000 0.000000 0.000000
vn 0.000000 0.000000 0.000000
vn 0.000000 0.000000 0.000000
vn 0.000000 0.000000 0.000000
vn 0.000000 0.000000 0.000000
vn 0.000000 0.000000 0.000000
vn 0.000000 0.000000 0.000000
vn 0.000000 0.000000 0.000000
vn 0.000000 0.000000 0.000000
vn 0.000000 0.000000 0.000000
vn 0.000000 0.000000 0.000000
s off
g pCube4
usemtl initialShadingGroup
f 1/1/1 2/2/2 4/4/3 3/3/4
s 1
f 3/3/5 4/4/6 6/6/7 5/5/8
f 5/5/8 6/6/7 8/8/9 7/7/10
s off
f 7/7/11 8/8/12 10/10/13 9/9/14
s 2
f 9/9/15 10/10/16 12/12/17 11/11/18
f 11/11/18 12/12/17 2/14/19 1/13/20
s 3
f 12/16/21 10/15/22 8/17/23 6/18/24
f 2/2/25 12/16/21 6/18/24 4/4/26
s 4
f 9/19/27 11/20/28 5/22/29 7/21/30
f 11/20/28 1/1/31 3/3/32 5/22/29
s off
f 13/23/33 14/24/34 16/25/35 15/26/36
f 15/26/37 16/25/38 18/27/39 17/28/40
f 17/28/41 18/27/42 20/29/43 19/30/44
f 19/30/45 20/29/46 14/31/47 13/32/48
f 14/24/49 20/33/50 18/34/51 16/25/52
f 19/35/53 13/23/54 15/26/55 17/36/56
f 21/37/57 80/38/58 64/39/59 77/40/60 22/41/61 24/42/62 23/43/63
f 41/44/64 36/45/65 38/46/66 37/47/67
f 25/48/68 26/49/69 28/50/70 72/51/71 62/52/72 68/53/73 27/54/74
f 70/55/75 65/56/76 67/57/77 66/58/78
f 22/41/79 76/59/80 63/60/81 73/61/82 28/62/83 26/63/84 24/42/85
f 27/64/86 67/65/87 65/66/88 81/67/89 21/37/90 23/43/91 25/68/92
f 23/43/93 24/42/94 30/69/95 43/70/96 33/71/97 39/72/98 29/73/99
f 24/42/100 26/49/101 31/74/102 47/75/103 34/76/104 44/77/105 30/69/106
f 26/49/107 25/48/108 32/78/109 51/79/110 35/80/111 48/81/112 31/74/113
f 25/48/114 23/43/115 29/73/116 38/46/117 36/45/118 52/82/119 32/78/120
f 40/83/121 33/71/122 43/70/123 42/84/124
f 45/85/125 34/76/126 47/75/127 46/86/128
f 49/87/129 35/80/130 51/79/131 50/88/132
f 38/46/133 29/73/134 39/72/135 37/47/136
f 39/72/137 33/71/138 40/83/139 37/47/140
f 53/89/141 54/90/142 55/91/143 56/92/144
f 43/70/145 30/69/146 44/77/147 42/84/148
f 44/77/149 34/76/150 45/85/151 42/84/152
f 57/93/153 54/90/154 53/89/155 58/94/156
f 47/75/157 31/74/158 48/81/159 46/86/160
f 48/81/161 35/80/162 49/87/163 46/86/164
f 59/95/165 54/90/166 57/93/167 60/96/168
f 51/79/169 32/78/170 52/82/171 50/88/172
f 52/82/173 36/45/174 41/44/175 50/88/176
f 55/91/177 54/90/178 59/95/179 61/97/180
s 5
f 41/44/181 37/47/182 56/92/183 55/91/184
s 6
f 37/47/185 40/83/186 53/89/187 56/92/188
f 40/83/186 42/84/189 58/94/190 53/89/187
s 7
f 42/84/191 45/85/192 57/93/193 58/94/194
f 45/85/192 46/86/195 60/96/196 57/93/193
s 8
f 46/86/197 49/87/198 59/95/199 60/96/200
f 49/87/198 50/88/201 61/97/202 59/95/199
s 5
f 50/88/203 41/44/181 55/91/184 61/97/204
s off
f 69/98/205 62/52/206 72/51/207 71/99/208
f 74/100/209 63/101/210 76/102/211 75/103/212
f 78/104/213 64/105/214 80/106/215 79/107/216
f 67/57/217 27/54/218 68/53/219 66/58/220
f 68/53/221 62/52/222 69/98/223 66/58/224
f 82/108/225 83/109/226 84/110/227 85/111/228
f 72/51/229 28/50/230 73/112/231 71/99/232
f 73/112/233 63/101/234 74/100/235 71/99/236
f 86/113/237 83/109/238 82/108/239 87/114/240
f 76/102/241 22/115/242 77/116/243 75/103/244
f 77/116/245 64/105/246 78/104/247 75/103/248
f 88/117/249 83/109/250 86/113/251 89/118/252
f 80/106/253 21/119/254 81/120/255 79/107/256
f 81/120/257 65/56/258 70/55/259 79/107/260
f 84/110/261 83/109/262 88/117/263 90/121/264
f 70/55/265 66/58/266 85/111/267 84/110/268
f 66/58/269 69/98/270 82/108/271 85/111/272
f 69/98/273 71/99/274 87/114/275 82/108/276
f 71/99/277 74/100/278 86/113/279 87/114/280
f 74/100/281 75/103/282 89/118/283 86/113/284
f 75/103/285 78/104/286 88/117/287 89/118/288
f 78/104/289 79/107/290 90/121/291 88/117/292
f 79/107/293 70/55/294 84/110/295 90/121/296
